<svg xmlns="http://www.w3.org/2000/svg" viewBox="0 0 64 64">
  <defs>
    <linearGradient id="cg" x1="0" y1="0" x2="1" y2="1">
      <stop offset="0" stop-color="#10b981"/>
      <stop offset="1" stop-color="#047857"/>
    </linearGradient>
  </defs>
  <!-- 对话气泡主体（带左下尾巴） -->
  <path d="M32 5 C17.6 5 6.5 15.4 6.5 28.5 c0 7.2 3.3 13.5 8.5 17.8 V55 c0 1.9 2.2 2.9 3.7 1.8 l8.7 -6.6 c1.5 0.2 3 0.3 4.6 0.3 14.4 0 25.5 -10.4 25.5 -23 S46.4 5 32 5 Z" fill="url(#cg)"/>
  <!-- 客服耳麦：头带 -->
  <path d="M19 31 v-2.5 a13 13 0 0 1 26 0 V31" fill="none" stroke="#ffffff" stroke-width="3.6" stroke-linecap="round"/>
  <!-- 耳麦：左右耳罩 -->
  <rect x="15.6" y="29.5" width="7" height="11.5" rx="3.5" fill="#ffffff"/>
  <rect x="41.4" y="29.5" width="7" height="11.5" rx="3.5" fill="#ffffff"/>
  <!-- 麦克风臂 + 麦头 -->
  <path d="M44.9 41 c0 5.4 -5.4 8.2 -10.9 8.2" fill="none" stroke="#ffffff" stroke-width="3" stroke-linecap="round"/>
  <circle cx="32.5" cy="49.2" r="2.8" fill="#ffffff"/>
</svg>
